<svg xmlns="http://www.w3.org/2000/svg" width="176.326" height="20" viewBox="0 0 176.326 20"><g transform="translate(-96.293 -141.772)"><path d="M171.644,144.561a7.928,7.928,0,0,1,5.432,2.464l2.171-1.976a12.794,12.794,0,0,0-3.581-2.463,10.99,10.99,0,0,0-4.023-.81,10.778,10.778,0,0,0-4.053.779,9.891,9.891,0,0,0-3.261,16.205,10.049,10.049,0,0,0,3.261,2.2,10.574,10.574,0,0,0,4.053.809,10.438,10.438,0,0,0,4.023-.809,12.977,12.977,0,0,0,3.581-2.5L177,156.524a7.759,7.759,0,0,1-5.359,2.462,7.212,7.212,0,0,1,0-14.424Z" transform="translate(-13.491 -0.001)"/><rect width="3.114" height="19.997" transform="translate(118.133 141.775)"/><path d="M143.044,141.781,133.8,161.772h3.4l2.035-4.44,9.2-.015,2.014,4.455h3.4l-9.247-20Zm-2.573,12.764,3.36-7.357,3.354,7.352Z" transform="translate(-7.773)"/><path d="M112.225,147.351c0-3.08-2.787-5.576-6.263-5.576H96.293v20h3.114v-8.88h2.822a3.212,3.212,0,0,1,2.609,1.329l4.924,7.551h3.584l-5.9-9.01A5.811,5.811,0,0,0,112.225,147.351ZM99.407,150.1v-5.543h6.625a2.79,2.79,0,1,1-.071,5.543Z" transform="translate(0 -0.001)"/><path d="M273.187,156.2V141.775H270.07V156.2c0,3.079,2.79,5.574,6.193,5.574h8.871v-2.787h-8.871A2.929,2.929,0,0,1,273.187,156.2Z" transform="translate(-36.012 -0.001)"/><path d="M303.107,141.775a10,10,0,1,0,0,20,10,10,0,1,0,0-20Zm0,17.21a7.213,7.213,0,1,1,7.134-7.228A7.186,7.186,0,0,1,303.107,158.985Z" transform="translate(-40.735 -0.001)"/><path d="M203.24,149.889H193.065v-8.114h-3.115v20h3.115v-9.128H203.24v9.128h3.112v-20H203.24Z" transform="translate(-19.408 -0.001)"/><path d="M244.49,161.773h15.063v-2.787H247.6v-6.341h11.081v-2.756H247.6v-5.328h11.948v-2.786H244.49Z" transform="translate(-30.711 -0.001)"/><path d="M230.51,154.935c0,2.2-2.247,3.953-5.07,3.953-2.86,0-5.106-1.75-5.106-3.953v-13.16h-3.113v13.16a6.226,6.226,0,0,0,.652,2.722,8.738,8.738,0,0,0,7.568,4.115,8.465,8.465,0,0,0,7.531-4.115,5.732,5.732,0,0,0,.652-2.722v-13.16H230.51Z" transform="translate(-25.06 -0.001)"/></g></svg>